<?xml version="1.0" encoding="UTF-8" standalone="no"?>
<!-- Created with Inkscape (http://www.inkscape.org/) -->

<svg
   xmlns:dc="http://purl.org/dc/elements/1.1/"
   xmlns:cc="http://creativecommons.org/ns#"
   xmlns:rdf="http://www.w3.org/1999/02/22-rdf-syntax-ns#"
   xmlns:svg="http://www.w3.org/2000/svg"
   xmlns="http://www.w3.org/2000/svg"
   xmlns:sodipodi="http://sodipodi.sourceforge.net/DTD/sodipodi-0.dtd"
   xmlns:inkscape="http://www.inkscape.org/namespaces/inkscape"
   width="57.262489mm"
   height="57.262489mm"
   viewBox="0 0 57.262489 57.262489"
   version="1.1"
   id="svg8"
   inkscape:version=""
   sodipodi:docname="puzzle-2.svg">
  <defs
     id="defs2" />
  <sodipodi:namedview
     id="base"
     pagecolor="#ffffff"
     bordercolor="#666666"
     borderopacity="1.0"
     inkscape:pageopacity="0.0"
     inkscape:pageshadow="2"
     inkscape:zoom="2.8"
     inkscape:cx="84.449427"
     inkscape:cy="93.924383"
     inkscape:document-units="mm"
     inkscape:current-layer="layer1"
     showgrid="false"
     inkscape:pagecheckerboard="true"
     inkscape:window-width="1920"
     inkscape:window-height="1061"
     inkscape:window-x="0"
     inkscape:window-y="0"
     inkscape:window-maximized="0"
     fit-margin-top="0"
     fit-margin-left="0"
     fit-margin-right="0"
     fit-margin-bottom="0" />
  <metadata
     id="metadata5">
    <rdf:RDF>
      <cc:Work
         rdf:about="">
        <dc:format>image/svg+xml</dc:format>
        <dc:type
           rdf:resource="http://purl.org/dc/dcmitype/StillImage" />
        <dc:title></dc:title>
      </cc:Work>
    </rdf:RDF>
  </metadata>
  <g
     inkscape:label="Layer 1"
     inkscape:groupmode="layer"
     id="layer1"
     transform="translate(-45.16855,-128.95429)">
    <path
       id="path855-7-6-0-3"
       style="fill:#ff7a4f;fill-opacity:1;stroke:none;stroke-width:1.05833328;stroke-linecap:butt;stroke-linejoin:miter;stroke-miterlimit:4;stroke-dasharray:none;stroke-opacity:1"
       d="m 59.734743,186.21678 c 2.330854,0 3.839868,-0.1353 4.276314,-2.07134 0.601359,-2.66758 -3.340872,-1.84908 -3.340872,-6.28083 0,-4.99062 4.131602,-5.74629 6.080384,-5.74629 1.948782,0 6.080384,0.75567 6.080384,5.74629 0,4.43175 -3.942231,3.61325 -3.340872,6.28083 0.436446,1.93604 1.94546,2.07134 4.276314,2.07134 H 88.332584 V 171.6506 c 0,-2.33086 0.1353,-3.83987 2.07134,-4.27632 2.66758,-0.60136 1.84908,3.34087 6.28083,3.34087 4.990616,0 5.746286,-4.1316 5.746286,-6.08038 0,-1.94878 -0.75567,-6.08038 -5.746286,-6.08038 -4.43175,0 -3.61325,3.94223 -6.28083,3.34087 -1.93604,-0.43645 -2.07134,-1.94546 -2.07134,-4.27632 l -3e-6,-14.56619 H 73.76639 c -2.330854,0 -3.839868,-0.1353 -4.276314,-2.07134 -0.601359,-2.66758 3.340872,-1.84908 3.340872,-6.28083 0,-4.99062 -4.131602,-5.74629 -6.080384,-5.74629 -1.948782,0 -6.080384,0.75567 -6.080384,5.74629 0,4.43175 3.942231,3.61325 3.340872,6.28083 -0.436446,1.93604 -1.94546,2.07134 -4.276314,2.07134 H 45.16855 l 10e-7,14.56619 c 0,2.33085 0.1353,3.83987 2.07134,4.27631 2.66758,0.60136 1.84908,-3.34087 6.28083,-3.34087 4.99062,0 5.74629,4.1316 5.74629,6.08039 0,1.94878 -0.75567,6.08038 -5.74629,6.08038 -4.43175,0 -3.61325,-3.94223 -6.28083,-3.34087 -1.93604,0.43644 -2.07134,1.94546 -2.07134,4.27631 v 14.56619 z"
       inkscape:connector-curvature="0"
       sodipodi:nodetypes="ssssssscscssscscssssssscscssscscs" />
  </g>
</svg>
