<?xml version="1.0" encoding="UTF-8" standalone="no"?>
<!-- Created with Inkscape (http://www.inkscape.org/) -->

<svg
   xmlns:dc="http://purl.org/dc/elements/1.1/"
   xmlns:cc="http://creativecommons.org/ns#"
   xmlns:rdf="http://www.w3.org/1999/02/22-rdf-syntax-ns#"
   xmlns:svg="http://www.w3.org/2000/svg"
   xmlns="http://www.w3.org/2000/svg"
   xmlns:sodipodi="http://sodipodi.sourceforge.net/DTD/sodipodi-0.dtd"
   xmlns:inkscape="http://www.inkscape.org/namespaces/inkscape"
   width="69.999992mm"
   height="69.999992mm"
   viewBox="0 0 69.999992 69.999992"
   version="1.1"
   id="svg8"
   inkscape:version=""
   sodipodi:docname="puzzle-2.svg">
  <defs
     id="defs2" />
  <sodipodi:namedview
     id="base"
     pagecolor="#ffffff"
     bordercolor="#666666"
     borderopacity="1.0"
     inkscape:pageopacity="0.0"
     inkscape:pageshadow="2"
     inkscape:zoom="1.979899"
     inkscape:cx="153.27633"
     inkscape:cy="120.39921"
     inkscape:document-units="mm"
     inkscape:current-layer="layer1"
     showgrid="false"
     inkscape:pagecheckerboard="true"
     inkscape:window-width="1920"
     inkscape:window-height="1061"
     inkscape:window-x="0"
     inkscape:window-y="0"
     inkscape:window-maximized="0"
     fit-margin-top="0"
     fit-margin-left="0"
     fit-margin-right="0"
     fit-margin-bottom="0" />
  <metadata
     id="metadata5">
    <rdf:RDF>
      <cc:Work
         rdf:about="">
        <dc:format>image/svg+xml</dc:format>
        <dc:type
           rdf:resource="http://purl.org/dc/dcmitype/StillImage" />
        <dc:title></dc:title>
      </cc:Work>
    </rdf:RDF>
  </metadata>
  <g
     inkscape:label="Layer 1"
     inkscape:groupmode="layer"
     id="layer1"
     transform="translate(-38.799795,-122.58554)">
    <path
       id="path855-7-6-0-3"
       style="fill:#ff7a4f;fill-opacity:1;stroke:none;stroke-width:1.29374969;stroke-linecap:butt;stroke-linejoin:miter;stroke-miterlimit:4;stroke-dasharray:none;stroke-opacity:1"
       d="m 56.606103,192.58553 c 2.84933,0 4.694011,-0.16539 5.22754,-2.53209 0.735126,-3.26095 -4.084018,-2.26039 -4.084018,-7.67794 0,-6.10073 5.050639,-7.0245 7.432909,-7.0245 2.382271,0 7.432909,0.92377 7.432909,7.0245 0,5.41755 -4.819144,4.41699 -4.084018,7.67794 0.533529,2.3667 2.37821,2.53209 5.22754,2.53209 h 17.806303 v -17.80629 c 0,-2.84933 0.165396,-4.69401 2.532091,-5.22754 3.260958,-0.73513 2.26039,4.08401 7.677941,4.08401 6.10073,0 7.02449,-5.05063 7.02449,-7.4329 0,-2.38227 -0.92376,-7.43291 -7.02449,-7.43291 -5.417551,0 -4.416983,4.81915 -7.677941,4.08402 -2.366695,-0.53354 -2.532091,-2.37821 -2.532091,-5.22755 l -3e-6,-17.8063 H 73.758959 c -2.84933,0 -4.694011,-0.1654 -5.22754,-2.53209 -0.735126,-3.26096 4.084018,-2.26039 4.084018,-7.67795 0,-6.10073 -5.050639,-7.02449 -7.432909,-7.02449 -2.382271,0 -7.432909,0.92376 -7.432909,7.02449 0,5.41756 4.819144,4.41699 4.084018,7.67795 -0.533529,2.36669 -2.37821,2.53209 -5.227541,2.53209 H 38.799795 l 10e-7,17.8063 c 0,2.84933 0.165396,4.69401 2.532091,5.22754 3.260958,0.73512 2.26039,-4.08402 7.677942,-4.08402 6.100737,0 7.024499,5.05064 7.024499,7.43292 0,2.38227 -0.923762,7.4329 -7.024499,7.4329 -5.417552,0 -4.416984,-4.81914 -7.677942,-4.08401 -2.366695,0.53352 -2.532091,2.37821 -2.532091,5.22753 v 17.8063 z"
       inkscape:connector-curvature="0"
       sodipodi:nodetypes="ssssssscscssscscssssssscscssscscs" />
  </g>
</svg>
